<svg width="184" height="164" viewBox="0 0 184 164" fill="none" xmlns="http://www.w3.org/2000/svg">
<path d="M64 0H120C162.667 0 184 21.3333 184 64V80C184 122.667 162.667 144 120 144H73.7551L60.2551 157C52.9217 166.333 44 166.333 42 157V134.5L64 144C21.3333 144 0 122.667 0 80V64C0 21.3333 21.3333 0 64 0Z" fill="url(#paint0_linear_4_34)"/>
<path d="M48.4551 108C46.3217 108 44.8217 107.367 43.9551 106.1C43.1551 104.833 43.1551 103.1 43.9551 100.9L65.7551 42.9C66.9551 39.6333 69.3217 38 72.8551 38H73.7551C77.2884 38 79.6551 39.6333 80.8551 42.9L102.655 100.9C103.455 103.1 103.422 104.833 102.555 106.1C101.755 107.367 100.255 108 98.0551 108H95.9551C92.4217 108 90.0884 106.3 88.9551 102.9L85.9551 94.1H60.2551L57.2551 102.9C56.1884 106.3 53.8551 108 50.2551 108H48.4551ZM64.4551 82.1H81.8551L73.2551 56.7L64.4551 82.1Z" fill="white"/>
<path d="M129.378 108C125.044 108 122.878 105.8 122.878 101.4V44.6C122.878 40.2 125.044 38 129.378 38C133.711 38 135.878 40.2 135.878 44.6V101.4C135.878 105.8 133.711 108 129.378 108Z" fill="white"/>
<defs>
<linearGradient id="paint0_linear_4_34" x1="0" y1="82" x2="184" y2="82" gradientUnits="userSpaceOnUse">
<stop stop-color="#1D4ED8"/>
<stop offset="1" stop-color="#8B5CF6"/>
</linearGradient>
</defs>
</svg>
