<svg width="589" height="169" viewBox="0 0 589 169" fill="none" xmlns="http://www.w3.org/2000/svg">
<path d="M469 5H525C567.667 5 589 26.3333 589 69V85C589 127.667 567.667 149 525 149H478.755L465.255 162C457.922 171.333 449 171.333 447 162V139.5L469 149C426.333 149 405 127.667 405 85V69C405 26.3333 426.333 5 469 5Z" fill="url(#paint0_linear_6_29)"/>
<path d="M453.455 113C451.322 113 449.822 112.367 448.955 111.1C448.155 109.833 448.155 108.1 448.955 105.9L470.755 47.9C471.955 44.6333 474.322 43 477.855 43H478.755C482.288 43 484.655 44.6333 485.855 47.9L507.655 105.9C508.455 108.1 508.422 109.833 507.555 111.1C506.755 112.367 505.255 113 503.055 113H500.955C497.422 113 495.088 111.3 493.955 107.9L490.955 99.1H465.255L462.255 107.9C461.188 111.3 458.855 113 455.255 113H453.455ZM469.455 87.1H486.855L478.255 61.7L469.455 87.1Z" fill="white"/>
<path d="M534.378 113C530.044 113 527.878 110.8 527.878 106.4V49.6C527.878 45.2 530.044 43 534.378 43C538.711 43 540.878 45.2 540.878 49.6V106.4C540.878 110.8 538.711 113 534.378 113Z" fill="white"/>
<path d="M5.7 79C4.16667 79 2.83333 78.4333 1.7 77.3C0.566667 76.1667 3.57628e-07 74.8333 3.57628e-07 73.3C3.57628e-07 71.7667 0.566667 70.4667 1.7 69.4C2.83333 68.2667 4.16667 67.7 5.7 67.7H21.2C21.8 67.7 22.1 67.4 22.1 66.8C22.3 63.2667 22.5 59.7333 22.7 56.2C22.7 55.6 22.4333 55.3 21.9 55.3H8.3C6.76667 55.3 5.43333 54.7667 4.3 53.7C3.23333 52.5667 2.7 51.2333 2.7 49.7C2.7 48.1667 3.23333 46.8333 4.3 45.7C5.43333 44.5667 6.76667 44 8.3 44H22.6C23.2 44 23.5 43.7333 23.5 43.2C23.5667 42.6 23.6333 41.7333 23.7 40.6C23.7667 39.4 23.8333 38.5 23.9 37.9C23.9667 36.3667 24.6 35.0667 25.8 34C27.0667 32.9333 28.4667 32.4333 30 32.5H32C33.5333 32.5667 34.8 33.1667 35.8 34.3C36.8667 35.4333 37.3333 36.7667 37.2 38.3L36.9 43.1C36.9 43.7 37.1667 44 37.7 44H66.7C68.2333 44 69.5333 44.5667 70.6 45.7C71.7333 46.8333 72.3 48.1667 72.3 49.7C72.3 51.2333 71.7333 52.5667 70.6 53.7C69.5333 54.7667 68.2333 55.3 66.7 55.3H36.9C36.3 55.3 36 55.5667 36 56.1C35.8667 59.2333 35.6667 62.8 35.4 66.8C35.4 67.4 35.7 67.7 36.3 67.7H59.7C61.2333 67.7 62.5333 68.2667 63.6 69.4C64.7333 70.4667 65.3 71.7667 65.3 73.3C65.3 74.8333 64.7333 76.1667 63.6 77.3C62.5333 78.4333 61.2333 79 59.7 79H35.8C35.2 79 34.9 79.3 34.9 79.9C34.7667 85.6333 34.7 89.3333 34.7 91C34.7 97.3333 35.6667 101.433 37.6 103.3C39.5333 105.1 43.9 106 50.7 106C58.1 106 63.2 105.067 66 103.2C68.8667 101.333 70.3 98.1667 70.3 93.7C70.3 93.2333 70.2333 92.3333 70.1 91C69.9 89.4 70.2 87.9667 71 86.7C71.8667 85.3667 73.0333 84.5333 74.5 84.2L75.8 83.9C77.3333 83.5667 78.7333 83.8333 80 84.7C81.3333 85.5667 82.1333 86.7667 82.4 88.3C82.8 90.7667 83 92.9 83 94.7C83 102.633 80.4 108.5 75.2 112.3C70 116.1 61.8333 118 50.7 118C39.5 118 31.8 116.067 27.6 112.2C23.4 108.4 21.3 101.333 21.3 91C21.3 89.3333 21.3667 85.6333 21.5 79.9C21.5 79.3 21.2333 79 20.7 79H5.7ZM135.1 50.7C127.3 52.3667 121.167 55.9333 116.7 61.4C112.233 66.8 110 73.4333 110 81.3C110 86.3667 111.033 90.8667 113.1 94.8C115.167 98.7333 117.133 100.7 119 100.7C119.933 100.7 120.9 100.267 121.9 99.4C122.9 98.4667 124 96.8333 125.2 94.5C126.467 92.1 127.667 89.1333 128.8 85.6C130 82 131.2 77.2667 132.4 71.4C133.667 65.4667 134.8 58.8 135.8 51.4C135.867 51.2 135.8 51.0333 135.6 50.9C135.467 50.7 135.3 50.6333 135.1 50.7ZM119 113.3C113.6 113.3 108.633 110.2 104.1 104C99.5667 97.8 97.3 90.2333 97.3 81.3C97.3 68.3667 101.7 57.8667 110.5 49.8C119.3 41.7333 130.8 37.7 145 37.7C156.467 37.7 165.933 41.3 173.4 48.5C180.933 55.7 184.7 64.8667 184.7 76C184.7 86.4667 182.267 95.1 177.4 101.9C172.6 108.633 166 112.933 157.6 114.8C156 115.133 154.533 114.833 153.2 113.9C151.933 112.967 151.133 111.7 150.8 110.1L150.6 109.2C150.267 107.733 150.533 106.367 151.4 105.1C152.267 103.833 153.433 102.967 154.9 102.5C166.3 98.9667 172 90.1333 172 76C172 69.2 169.967 63.4667 165.9 58.8C161.9 54.0667 156.633 51.1667 150.1 50.1C149.5 49.9667 149.133 50.2 149 50.8C147.667 60.8667 146.167 69.6333 144.5 77.1C142.833 84.5 141.067 90.5 139.2 95.1C137.4 99.6333 135.367 103.3 133.1 106.1C130.833 108.833 128.6 110.733 126.4 111.8C124.2 112.8 121.733 113.3 119 113.3ZM239.3 117.7C227.967 117.7 220.133 114.967 215.8 109.5C211.467 103.967 209.3 93.8 209.3 79C209.3 66.9333 209.667 53.9333 210.4 40C210.533 38.4 211.133 37.0667 212.2 36C213.333 34.9333 214.7 34.4333 216.3 34.5H218.7C220.233 34.5667 221.5 35.1667 222.5 36.3C223.567 37.4333 224.067 38.7667 224 40.3C223.333 54.6333 223 67.5333 223 79C223 86.2 223.567 91.7 224.7 95.5C225.9 99.2333 227.6 101.767 229.8 103.1C232 104.367 235.167 105 239.3 105C250.833 105 260.233 97.1333 267.5 81.4C268.167 80 269.2 79 270.6 78.4C272.067 77.7333 273.533 77.6667 275 78.2L276.3 78.8C277.767 79.3333 278.833 80.3333 279.5 81.8C280.167 83.2667 280.167 84.7 279.5 86.1C270.367 107.167 256.967 117.7 239.3 117.7ZM314.3 86.3C312.767 86.3 311.433 85.7667 310.3 84.7C309.233 83.5667 308.7 82.2333 308.7 80.7V41.3C308.7 39.7667 309.233 38.4667 310.3 37.4C311.433 36.2667 312.767 35.7 314.3 35.7H316C317.533 35.7 318.867 36.2667 320 37.4C321.133 38.4667 321.7 39.7667 321.7 41.3V55.2V55.3C321.833 55.3 321.9 55.2333 321.9 55.1C329.033 43.5 338.5 37.7 350.3 37.7C358.567 37.7 365.067 40.6 369.8 46.4C374.6 52.1333 377 60.2333 377 70.7C377 86.1667 372.833 97.7 364.5 105.3C356.167 112.833 342.933 116.933 324.8 117.6C323.2 117.667 321.8 117.133 320.6 116C319.467 114.933 318.833 113.6 318.7 112L318.6 111.3C318.533 109.767 319 108.467 320 107.4C321.067 106.267 322.367 105.667 323.9 105.6C338.1 105.067 348.167 102.1 354.1 96.7C360.033 91.3 363 82.6333 363 70.7C363 63.9667 361.8 58.9 359.4 55.5C357 52.0333 353.533 50.3 349 50.3C342.867 50.3 337.167 53.2 331.9 59C326.633 64.7333 323.3 71.9667 321.9 80.7C321.633 82.3 320.933 83.6333 319.8 84.7C318.667 85.7667 317.3 86.3 315.7 86.3H314.3Z" fill="white"/>
<defs>
<linearGradient id="paint0_linear_6_29" x1="405" y1="87" x2="589" y2="87" gradientUnits="userSpaceOnUse">
<stop stop-color="#1D4ED8"/>
<stop offset="1" stop-color="#8B5CF6"/>
</linearGradient>
</defs>
</svg>
